<svg width="21" height="24" viewBox="0 0 21 24" fill="none" xmlns="http://www.w3.org/2000/svg">
<path d="M19.9172 4.00566C19.6705 3.674 19.3617 3.40727 19.0127 3.22439C18.6636 3.04151 18.283 2.94698 17.8976 2.9475H3.71983L3.683 2.60265C3.60763 1.88583 3.30013 1.22492 2.8188 0.745206C2.33748 0.265495 1.71578 0.000335813 1.07158 0L0.876906 0C0.644336 0 0.421291 0.103513 0.25684 0.287768C0.092388 0.472023 0 0.721926 0 0.982502C0 1.24308 0.092388 1.49298 0.25684 1.67724C0.421291 1.86149 0.644336 1.965 0.876906 1.965H1.07158C1.28636 1.96503 1.49367 2.05339 1.65417 2.2133C1.81467 2.37321 1.91722 2.59356 1.94235 2.83255L3.14897 14.3278C3.27424 15.5233 3.7869 16.6257 4.58964 17.4257C5.39239 18.2256 6.42934 18.6676 7.50368 18.6675H16.6612C16.8938 18.6675 17.1168 18.564 17.2813 18.3798C17.4457 18.1955 17.5381 17.9456 17.5381 17.685C17.5381 17.4245 17.4457 17.1745 17.2813 16.9903C17.1168 16.806 16.8938 16.7025 16.6612 16.7025H7.50368C6.96093 16.7008 6.43193 16.5111 5.98921 16.1593C5.54649 15.8075 5.21172 15.3109 5.03081 14.7375H15.4835C16.5115 14.7376 17.5068 14.333 18.2956 13.5943C19.0844 12.8557 19.6164 11.83 19.7988 10.6965L20.4871 6.41868C20.5559 5.99425 20.5404 5.55808 20.4419 5.14107C20.3434 4.72407 20.1643 4.33644 19.9172 4.00566Z" fill="black"/>
<path d="M6.13894 23.5794C7.10755 23.5794 7.89275 22.6996 7.89275 21.6144C7.89275 20.5291 7.10755 19.6494 6.13894 19.6494C5.17034 19.6494 4.38513 20.5291 4.38513 21.6144C4.38513 22.6996 5.17034 23.5794 6.13894 23.5794Z" fill="black"/>
<path d="M14.9091 23.5794C15.8777 23.5794 16.6629 22.6996 16.6629 21.6144C16.6629 20.5291 15.8777 19.6494 14.9091 19.6494C13.9405 19.6494 13.1553 20.5291 13.1553 21.6144C13.1553 22.6996 13.9405 23.5794 14.9091 23.5794Z" fill="black"/>
</svg>
